<?xml version="1.0" encoding="UTF-8" standalone="no"?>
<!-- Created with Inkscape (http://www.inkscape.org/) -->

<svg
   xmlns:osb="http://www.openswatchbook.org/uri/2009/osb"
   xmlns:dc="http://purl.org/dc/elements/1.1/"
   xmlns:cc="http://creativecommons.org/ns#"
   xmlns:rdf="http://www.w3.org/1999/02/22-rdf-syntax-ns#"
   xmlns:svg="http://www.w3.org/2000/svg"
   xmlns="http://www.w3.org/2000/svg"
   xmlns:xlink="http://www.w3.org/1999/xlink"
   xmlns:sodipodi="http://sodipodi.sourceforge.net/DTD/sodipodi-0.dtd"
   xmlns:inkscape="http://www.inkscape.org/namespaces/inkscape"
   width="112"
   height="112"
   viewBox="0 0 29.633333 29.633334"
   version="1.1"
   id="svg8"
   inkscape:version="0.92.4 (5da689c313, 2019-01-14)"
   sodipodi:docname="spirit_box.svg"
   inkscape:export-filename="C:\Users\trist\OneDrive\Pictures\spirit_box.png"
   inkscape:export-xdpi="96"
   inkscape:export-ydpi="96">
  <defs
     id="defs2">
    <linearGradient
       inkscape:collect="always"
       id="linearGradient3003">
      <stop
         style="stop-color:#2d2d2d;stop-opacity:1"
         offset="0"
         id="stop2999" />
      <stop
         style="stop-color:#3e3e3e;stop-opacity:1"
         offset="1"
         id="stop3001" />
    </linearGradient>
    <pattern
       inkscape:collect="always"
       xlink:href="#pattern2989"
       id="pattern2997"
       patternTransform="matrix(0.26458333,0,0,0.26458333,5.0529297e-7,279.00001)" />
    <linearGradient
       id="linearGradient2732"
       inkscape:collect="always">
      <stop
         id="stop2728"
         offset="0"
         style="stop-color:#777777;stop-opacity:1" />
      <stop
         id="stop2730"
         offset="1"
         style="stop-color:#a7a7a7;stop-opacity:1" />
    </linearGradient>
    <linearGradient
       inkscape:collect="always"
       id="linearGradient2700">
      <stop
         style="stop-color:#cfffff;stop-opacity:1"
         offset="0"
         id="stop2696" />
      <stop
         style="stop-color:#cfffff;stop-opacity:0"
         offset="1"
         id="stop2698" />
    </linearGradient>
    <linearGradient
       inkscape:collect="always"
       id="linearGradient2443">
      <stop
         style="stop-color:#a8a8a8;stop-opacity:1;"
         offset="0"
         id="stop2439" />
      <stop
         style="stop-color:#d2cece;stop-opacity:1"
         offset="1"
         id="stop2441" />
    </linearGradient>
    <linearGradient
       inkscape:collect="always"
       id="linearGradient2435">
      <stop
         style="stop-color:#242424;stop-opacity:1;"
         offset="0"
         id="stop2431" />
      <stop
         style="stop-color:#373737;stop-opacity:1"
         offset="1"
         id="stop2433" />
    </linearGradient>
    <linearGradient
       id="linearGradient870"
       osb:paint="solid">
      <stop
         style="stop-color:#cfffff;stop-opacity:1;"
         offset="0"
         id="stop868" />
    </linearGradient>
    <linearGradient
       inkscape:collect="always"
       xlink:href="#linearGradient2435"
       id="linearGradient2437"
       x1="11.38106"
       y1="284.66714"
       x2="5.0555067"
       y2="272.00525"
       gradientUnits="userSpaceOnUse" />
    <linearGradient
       inkscape:collect="always"
       xlink:href="#linearGradient2443"
       id="linearGradient2445"
       x1="9.9083166"
       y1="281.94345"
       x2="6"
       y2="271.99997"
       gradientUnits="userSpaceOnUse" />
    <pattern
       patternUnits="userSpaceOnUse"
       width="3.0236221"
       height="10.164661"
       patternTransform="matrix(0.26458333,0,0,0.26458333,1.5,280.11523)"
       id="pattern2631">
      <path
         inkscape:connector-curvature="0"
         id="path2494"
         d="M 1.1338583,0 V 10.164661"
         style="opacity:0;fill:none;stroke:#000000;stroke-width:0.75590551;stroke-linecap:butt;stroke-linejoin:miter;stroke-miterlimit:4;stroke-dasharray:none;stroke-opacity:1" />
      <path
         inkscape:connector-curvature="0"
         id="path2494-5"
         d="M 1.8897638,0 V 10.164661"
         style="fill:none;stroke:#000000;stroke-width:0.75590551;stroke-linecap:butt;stroke-linejoin:miter;stroke-miterlimit:4;stroke-dasharray:none;stroke-opacity:1" />
      <path
         inkscape:connector-curvature="0"
         id="path2494-3"
         d="M 0.37795276,0 V 10.164661"
         style="fill:none;stroke:#000000;stroke-width:0.75590551;stroke-linecap:butt;stroke-linejoin:miter;stroke-miterlimit:4;stroke-dasharray:none;stroke-opacity:1" />
      <path
         inkscape:connector-curvature="0"
         id="path2494-5-9"
         d="M 2.6456693,0 V 10.164661"
         style="opacity:0;fill:none;stroke:#000000;stroke-width:0.75590551;stroke-linecap:butt;stroke-linejoin:miter;stroke-miterlimit:4;stroke-dasharray:none;stroke-opacity:1" />
    </pattern>
    <radialGradient
       inkscape:collect="always"
       xlink:href="#linearGradient2700"
       id="radialGradient2702"
       cx="5.2916665"
       cy="269.73137"
       fx="5.2916665"
       fy="269.73137"
       r="2.4473958"
       gradientTransform="matrix(3.5945946,0,0,1.0743243,-4.2378033,-14.127539)"
       gradientUnits="userSpaceOnUse" />
    <linearGradient
       gradientTransform="matrix(0.11342053,0,0,0.11109827,7.1195331,247.66986)"
       inkscape:collect="always"
       xlink:href="#linearGradient2732"
       id="linearGradient2445-0"
       x1="15.045423"
       y1="281.98859"
       x2="15.031044"
       y2="273.0029"
       gradientUnits="userSpaceOnUse" />
    <linearGradient
       gradientTransform="matrix(0.11342053,0,0,0.11109827,11.119534,247.66986)"
       inkscape:collect="always"
       xlink:href="#linearGradient2732"
       id="linearGradient2445-0-8"
       x1="15.045423"
       y1="281.98859"
       x2="15.031044"
       y2="273.0029"
       gradientUnits="userSpaceOnUse" />
    <linearGradient
       gradientTransform="matrix(0.11342053,0,0,0.11109827,15.119533,247.66986)"
       inkscape:collect="always"
       xlink:href="#linearGradient2732"
       id="linearGradient2445-0-5"
       x1="15.045423"
       y1="281.98859"
       x2="15.031044"
       y2="273.0029"
       gradientUnits="userSpaceOnUse" />
    <linearGradient
       gradientTransform="matrix(0.11342053,0,0,0.11109827,19.119533,247.66986)"
       inkscape:collect="always"
       xlink:href="#linearGradient2732"
       id="linearGradient2445-0-0"
       x1="15.045423"
       y1="281.98859"
       x2="15.031044"
       y2="273.0029"
       gradientUnits="userSpaceOnUse" />
    <linearGradient
       gradientTransform="matrix(0.11342053,0,0,0.11109827,7.119533,249.66986)"
       inkscape:collect="always"
       xlink:href="#linearGradient2732"
       id="linearGradient2445-0-56"
       x1="15.045423"
       y1="281.98859"
       x2="15.031044"
       y2="273.0029"
       gradientUnits="userSpaceOnUse" />
    <linearGradient
       gradientTransform="matrix(0.11342053,0,0,0.11109827,11.119533,249.66986)"
       inkscape:collect="always"
       xlink:href="#linearGradient2732"
       id="linearGradient2445-0-1"
       x1="15.045423"
       y1="281.98859"
       x2="15.031044"
       y2="273.0029"
       gradientUnits="userSpaceOnUse" />
    <linearGradient
       gradientTransform="matrix(0.11342053,0,0,0.11109827,15.119533,249.66986)"
       inkscape:collect="always"
       xlink:href="#linearGradient2732"
       id="linearGradient2445-0-2"
       x1="15.045423"
       y1="281.98859"
       x2="15.031044"
       y2="273.0029"
       gradientUnits="userSpaceOnUse" />
    <linearGradient
       gradientTransform="matrix(0.11342053,0,0,0.11109827,19.119533,249.66986)"
       inkscape:collect="always"
       xlink:href="#linearGradient2732"
       id="linearGradient2445-0-02"
       x1="15.045423"
       y1="281.98859"
       x2="15.031044"
       y2="273.0029"
       gradientUnits="userSpaceOnUse" />
    <pattern
       patternUnits="userSpaceOnUse"
       width="7.5590551"
       height="68.031496"
       patternTransform="matrix(0.26458333,0,0,0.26458333,0,278.99998)"
       id="pattern2989">
      <path
         sodipodi:nodetypes="cc"
         inkscape:connector-curvature="0"
         id="path2960"
         d="M 0.94488189,0 V 68.031496"
         style="fill:none;stroke:#000000;stroke-width:1.88976383;stroke-linecap:butt;stroke-linejoin:miter;stroke-miterlimit:4;stroke-dasharray:none;stroke-opacity:1" />
      <path
         sodipodi:nodetypes="cc"
         inkscape:connector-curvature="0"
         id="path2960-0"
         d="M 2.8346457,0 V 68.031496"
         style="opacity:0;fill:none;stroke:#000000;stroke-width:1.88976383;stroke-linecap:butt;stroke-linejoin:miter;stroke-miterlimit:4;stroke-dasharray:none;stroke-opacity:1" />
      <path
         sodipodi:nodetypes="cc"
         inkscape:connector-curvature="0"
         id="path2960-5"
         d="M 4.7244094,0 V 68.031496"
         style="fill:none;stroke:#000000;stroke-width:1.88976383;stroke-linecap:butt;stroke-linejoin:miter;stroke-miterlimit:4;stroke-dasharray:none;stroke-opacity:1" />
      <path
         sodipodi:nodetypes="cc"
         inkscape:connector-curvature="0"
         id="path2960-1"
         d="M 6.6141732,0 V 68.031496"
         style="opacity:0;fill:none;stroke:#000000;stroke-width:1.88976383;stroke-linecap:butt;stroke-linejoin:miter;stroke-miterlimit:4;stroke-dasharray:none;stroke-opacity:1" />
    </pattern>
    <radialGradient
       inkscape:collect="always"
       xlink:href="#linearGradient3003"
       id="radialGradient3005"
       cx="15"
       cy="289.49997"
       fx="15"
       fy="289.49997"
       r="6"
       gradientUnits="userSpaceOnUse" />
    <linearGradient
       inkscape:collect="always"
       xlink:href="#linearGradient2443"
       id="linearGradient3023"
       x1="22.357096"
       y1="269.66751"
       x2="20.427746"
       y2="269.63242"
       gradientUnits="userSpaceOnUse" />
  </defs>
  <sodipodi:namedview
     id="base"
     pagecolor="#ffffff"
     bordercolor="#666666"
     borderopacity="1.0"
     inkscape:pageopacity="0.0"
     inkscape:pageshadow="2"
     inkscape:zoom="4"
     inkscape:cx="33.937115"
     inkscape:cy="89.437171"
     inkscape:document-units="mm"
     inkscape:current-layer="layer1"
     showgrid="false"
     units="px"
     showguides="true"
     inkscape:guide-bbox="true"
     inkscape:window-width="1920"
     inkscape:window-height="1057"
     inkscape:window-x="-8"
     inkscape:window-y="-8"
     inkscape:window-maximized="1" />
  <metadata
     id="metadata5">
    <rdf:RDF>
      <cc:Work
         rdf:about="">
        <dc:format>image/svg+xml</dc:format>
        <dc:type
           rdf:resource="http://purl.org/dc/dcmitype/StillImage" />
        <dc:title></dc:title>
      </cc:Work>
    </rdf:RDF>
  </metadata>
  <g
     inkscape:label="Calque 1"
     inkscape:groupmode="layer"
     id="layer1"
     transform="translate(0,-267.36665)">
    <path
       style="fill:url(#linearGradient2437);fill-opacity:1;stroke:none;stroke-width:0.26458332px;stroke-linecap:butt;stroke-linejoin:miter;stroke-opacity:1"
       d="m 6,271.99998 h 17.633 c 0.985556,0 1,1 1,1 v 23 c 0,0 0.0023,1.0167 -1,1 H 6 c -0.9803757,0 -1,-1 -1,-1 v -23 c 0,0 -0.00226,-1 1,-1 z"
       id="path815"
       inkscape:connector-curvature="0"
       sodipodi:nodetypes="ccccccccc" />
    <path
       style="fill:url(#linearGradient2445);fill-opacity:1;stroke:none;stroke-width:0.26458332px;stroke-linecap:butt;stroke-linejoin:miter;stroke-opacity:1"
       d="m 7,272.99998 h 15.633 c 1.002261,0 1,1 1,1 l -5e-4,7 c 0,0 0.0023,1.0167 -1,1 H 6.9995 c -1.0022607,0 -1,-1 -1,-1 l 5e-4,-7 c 0,0 -0.00226,-1 1,-1 z"
       id="path815-2"
       inkscape:connector-curvature="0"
       sodipodi:nodetypes="ccccccccc" />
    <path
       style="fill:#cfffff;fill-opacity:1;stroke:none;stroke-width:0.26458332px;stroke-linecap:butt;stroke-linejoin:miter;stroke-opacity:1"
       d="m 8,273.99998 h 13.63325 c 0.985556,0 1,1 1,1 l -5e-4,1.00001 c 0,0 -0.01444,1 -1,1 l -13.63325,-1e-5 c -0.9855564,-0.0167 -1,-1 -1,-1 l 5e-4,-1 c 0,0 -0.018965,-1 1,-1 z"
       id="path815-2-7"
       inkscape:connector-curvature="0"
       sodipodi:nodetypes="ccccccccc" />
    <rect
       style="opacity:1;fill:url(#radialGradient2702);fill-opacity:1;stroke:none;stroke-width:0.47576538;stroke-linecap:butt;stroke-linejoin:miter;stroke-miterlimit:4;stroke-dasharray:none;stroke-opacity:1;paint-order:normal"
       id="rect2694"
       width="17.594793"
       height="5.2585936"
       x="5.9861979"
       y="273.02213" />
    <text
       xml:space="preserve"
       style="font-style:normal;font-weight:normal;font-size:2.11666656px;line-height:1.25;font-family:sans-serif;letter-spacing:0px;word-spacing:0px;fill:#000000;fill-opacity:1;stroke:none;stroke-width:0.26458332;opacity:0.6;"
       x="10.794511"
       y="276.29013"
       id="text860"><tspan
         sodipodi:role="line"
         id="tspan858"
         x="10.794511"
         y="276.29013"
         style="font-style:normal;font-variant:normal;font-weight:normal;font-stretch:normal;font-family:ARIAl;-inkscape-font-specification:ARIAl;stroke-width:0.26458332;">BEHIND</tspan></text>
    <circle
       style="opacity:1;fill:url(#radialGradient3005);fill-opacity:1;stroke:none;stroke-width:0.32757741;stroke-miterlimit:4;stroke-dasharray:none;stroke-opacity:1;paint-order:normal"
       id="path866"
       cx="15"
       cy="289.49997"
       r="6" />
    <circle
       style="opacity:1;fill:url(#pattern2997);fill-opacity:1;stroke:#2d2d2d;stroke-width:0.32757741;stroke-miterlimit:4;stroke-dasharray:none;stroke-opacity:1;paint-order:normal"
       id="path866-7"
       cx="15"
       cy="289.49997"
       r="6" />
    <path
       style="fill:url(#linearGradient2445-0);fill-opacity:1;stroke:none;stroke-width:0.02970039px;stroke-linecap:butt;stroke-linejoin:miter;stroke-opacity:1"
       d="m 8.117899,277.99998 h 1.364947 c 0.3162647,0 0.317154,0.211 0.317154,0.211 l -5.72e-5,0.578 c 0,0 -8.596e-4,0.21082 -0.3170968,0.211 l -1.364947,-3.1e-4 C 7.8016381,279.00167 7.8,278.78898 7.8,278.78898 l 5.64e-5,-0.578 c 0,0 0.0037,-0.211 0.3178426,-0.211 z"
       id="path815-2-1"
       inkscape:connector-curvature="0"
       sodipodi:nodetypes="ccccccccc" />
    <path
       style="fill:url(#linearGradient2445-0-8);fill-opacity:1;stroke:none;stroke-width:0.02970039px;stroke-linecap:butt;stroke-linejoin:miter;stroke-opacity:1"
       d="m 12.117899,277.99998 h 1.364947 c 0.316265,0 0.317154,0.211 0.317154,0.211 l -5.7e-5,0.578 c 0,0 -8.6e-4,0.21082 -0.317097,0.211 l -1.364947,-3.1e-4 C 11.801639,279.00167 11.8,278.78898 11.8,278.78898 l 5.7e-5,-0.578 c 0,0 0.0037,-0.211 0.317842,-0.211 z"
       id="path815-2-1-3"
       inkscape:connector-curvature="0"
       sodipodi:nodetypes="ccccccccc" />
    <path
       style="fill:url(#linearGradient2445-0-5);fill-opacity:1;stroke:none;stroke-width:0.02970039px;stroke-linecap:butt;stroke-linejoin:miter;stroke-opacity:1"
       d="m 16.117899,277.99998 h 1.364947 c 0.316265,0 0.317154,0.211 0.317154,0.211 l -5.7e-5,0.578 c 0,0 -8.6e-4,0.21082 -0.317097,0.211 l -1.364947,-3.1e-4 C 15.801638,279.00167 15.8,278.78898 15.8,278.78898 l 5.7e-5,-0.578 c 0,0 0.0037,-0.211 0.317842,-0.211 z"
       id="path815-2-1-1"
       inkscape:connector-curvature="0"
       sodipodi:nodetypes="ccccccccc" />
    <path
       style="fill:url(#linearGradient2445-0-0);fill-opacity:1;stroke:none;stroke-width:0.02970039px;stroke-linecap:butt;stroke-linejoin:miter;stroke-opacity:1"
       d="m 20.117899,277.99998 h 1.364947 c 0.316265,0 0.317154,0.211 0.317154,0.211 l -5.7e-5,0.578 c 0,0 -8.6e-4,0.21082 -0.317097,0.211 l -1.364947,-3.1e-4 C 19.801638,279.00167 19.8,278.78898 19.8,278.78898 l 5.6e-5,-0.578 c 0,0 0.0037,-0.211 0.317843,-0.211 z"
       id="path815-2-1-6"
       inkscape:connector-curvature="0"
       sodipodi:nodetypes="ccccccccc" />
    <path
       style="fill:url(#linearGradient2445-0-56);fill-opacity:1;stroke:none;stroke-width:0.02970039px;stroke-linecap:butt;stroke-linejoin:miter;stroke-opacity:1"
       d="M 8.1178989,279.99998 H 9.482846 c 0.3162646,0 0.3171536,0.211 0.3171536,0.211 l -5.7e-5,0.578 c 0,0 -8.6e-4,0.21082 -0.3170966,0.211 l -1.3649471,-3.1e-4 C 7.8016381,281.00167 7.8,280.78898 7.8,280.78898 l 5.64e-5,-0.578 c 0,0 0.0037,-0.211 0.3178425,-0.211 z"
       id="path815-2-1-8"
       inkscape:connector-curvature="0"
       sodipodi:nodetypes="ccccccccc" />
    <path
       style="fill:url(#linearGradient2445-0-1);fill-opacity:1;stroke:none;stroke-width:0.02970039px;stroke-linecap:butt;stroke-linejoin:miter;stroke-opacity:1"
       d="m 12.117899,279.99998 h 1.364947 c 0.316265,0 0.317154,0.211 0.317154,0.211 l -5.7e-5,0.578 c 0,0 -8.6e-4,0.21082 -0.317097,0.211 l -1.364947,-3.1e-4 C 11.801638,281.00167 11.8,280.78898 11.8,280.78898 l 5.6e-5,-0.578 c 0,0 0.0037,-0.211 0.317843,-0.211 z"
       id="path815-2-1-82"
       inkscape:connector-curvature="0"
       sodipodi:nodetypes="ccccccccc" />
    <path
       style="fill:url(#linearGradient2445-0-2);fill-opacity:1;stroke:none;stroke-width:0.02970039px;stroke-linecap:butt;stroke-linejoin:miter;stroke-opacity:1"
       d="m 16.117899,279.99998 h 1.364947 c 0.316264,0 0.317154,0.211 0.317154,0.211 l -5.8e-5,0.578 c 0,0 -8.6e-4,0.21082 -0.317096,0.211 l -1.364947,-3.1e-4 C 15.801638,281.00167 15.8,280.78898 15.8,280.78898 l 5.6e-5,-0.578 c 0,0 0.0037,-0.211 0.317843,-0.211 z"
       id="path815-2-1-80"
       inkscape:connector-curvature="0"
       sodipodi:nodetypes="ccccccccc" />
    <path
       style="fill:url(#linearGradient2445-0-02);fill-opacity:1;stroke:none;stroke-width:0.02970039px;stroke-linecap:butt;stroke-linejoin:miter;stroke-opacity:1"
       d="m 20.117899,279.99998 h 1.364947 c 0.316265,0 0.317154,0.211 0.317154,0.211 l -5.7e-5,0.578 c 0,0 -8.6e-4,0.21082 -0.317097,0.211 l -1.364947,-3.1e-4 C 19.801638,281.00167 19.8,280.78898 19.8,280.78898 l 5.6e-5,-0.578 c 0,0 0.0037,-0.211 0.317843,-0.211 z"
       id="path815-2-1-5"
       inkscape:connector-curvature="0"
       sodipodi:nodetypes="ccccccccc" />
    <path
       style="fill:url(#linearGradient3023);fill-opacity:1;stroke:none;stroke-width:0.26458332px;stroke-linecap:butt;stroke-linejoin:miter;stroke-opacity:1"
       d="m 22,271.99998 v -4 l 0.5,-0.2 v -0.433 h -1.8 v 0.433 l 0.5,0.2 v 4 z"
       id="path3007"
       inkscape:connector-curvature="0"
       sodipodi:nodetypes="ccccccccc" />
  </g>
</svg>
