<?xml version="1.0" encoding="UTF-8" standalone="no"?>
<!-- Created with Inkscape (http://www.inkscape.org/) -->

<svg
   xmlns:dc="http://purl.org/dc/elements/1.1/"
   xmlns:cc="http://creativecommons.org/ns#"
   xmlns:rdf="http://www.w3.org/1999/02/22-rdf-syntax-ns#"
   xmlns:svg="http://www.w3.org/2000/svg"
   xmlns="http://www.w3.org/2000/svg"
   xmlns:xlink="http://www.w3.org/1999/xlink"
   xmlns:sodipodi="http://sodipodi.sourceforge.net/DTD/sodipodi-0.dtd"
   xmlns:inkscape="http://www.inkscape.org/namespaces/inkscape"
   width="112"
   height="112"
   viewBox="0 0 29.633333 29.633334"
   version="1.1"
   id="svg8"
   inkscape:version="0.92.4 (5da689c313, 2019-01-14)"
   sodipodi:docname="thermometer.svg"
   inkscape:export-filename="C:\Users\trist\OneDrive\Pictures\thermometer.png"
   inkscape:export-xdpi="96"
   inkscape:export-ydpi="96">
  <defs
     id="defs2">
    <linearGradient
       inkscape:collect="always"
       id="linearGradient838">
      <stop
         style="stop-color:#cdcd00;stop-opacity:1"
         offset="0"
         id="stop834" />
      <stop
         style="stop-color:#f0f000;stop-opacity:1"
         offset="1"
         id="stop836" />
    </linearGradient>
    <linearGradient
       inkscape:collect="always"
       xlink:href="#linearGradient838"
       id="linearGradient840"
       x1="14.933684"
       y1="286.22568"
       x2="16.30344"
       y2="286.22565"
       gradientUnits="userSpaceOnUse" />
  </defs>
  <sodipodi:namedview
     id="base"
     pagecolor="#ffffff"
     bordercolor="#666666"
     borderopacity="1.0"
     inkscape:pageopacity="0.0"
     inkscape:pageshadow="2"
     inkscape:zoom="3.959798"
     inkscape:cx="0.92126045"
     inkscape:cy="62.662795"
     inkscape:document-units="mm"
     inkscape:current-layer="layer1"
     showgrid="false"
     units="px"
     inkscape:window-width="1920"
     inkscape:window-height="1057"
     inkscape:window-x="-8"
     inkscape:window-y="-8"
     inkscape:window-maximized="1" />
  <metadata
     id="metadata5">
    <rdf:RDF>
      <cc:Work
         rdf:about="">
        <dc:format>image/svg+xml</dc:format>
        <dc:type
           rdf:resource="http://purl.org/dc/dcmitype/StillImage" />
        <dc:title />
      </cc:Work>
    </rdf:RDF>
  </metadata>
  <g
     inkscape:label="Calque 1"
     inkscape:groupmode="layer"
     id="layer1"
     transform="translate(0,-267.36665)">
    <path
       style="fill:#444346;fill-opacity:1;stroke:none;stroke-width:0.26458332px;stroke-linecap:butt;stroke-linejoin:miter;stroke-opacity:1"
       d="m 9.8,276.99998 h 10.4 c 0.301866,0.68913 0.303211,1.29013 0,2 H 9.8 c -0.3572929,-0.78274 -0.3053024,-1.28407 0,-2 z"
       id="path830"
       inkscape:connector-curvature="0"
       sodipodi:nodetypes="ccccc" />
    <path
       style="fill:#f0f000;fill-opacity:1;stroke:none;stroke-width:0.26458332px;stroke-linecap:butt;stroke-linejoin:miter;stroke-opacity:1"
       d="m 10,294.99998 c -0.023623,2.008 1.90625,2 1.90625,2 H 18 c 0,0 2,0.0316 2,-2 v -18 c 0.02228,-1.66052 1,-3.49661 1,-5 0,0 -0.01203,-4.6286 -2,-4.633 h -8 c -1.9682927,0.0134 -2,4.633 -2,4.633 0,1.60362 0.992985,3.394 1,5 z"
       id="path826"
       inkscape:connector-curvature="0"
       sodipodi:nodetypes="ccccccccccc" />
    <path
       style="fill:url(#linearGradient840);fill-opacity:1;stroke:none;stroke-width:0.26458332px;stroke-linecap:butt;stroke-linejoin:miter;stroke-opacity:1"
       d="m 15,279.99998 5.3,-5 -3.3,7 v 15 h -2 z"
       id="path832"
       inkscape:connector-curvature="0"
       sodipodi:nodetypes="cccccc" />
    <path
       style="fill:#0f181f;fill-opacity:1;stroke:none;stroke-width:0.26458332px;stroke-linecap:butt;stroke-linejoin:miter;stroke-opacity:1"
       d="m 11,267.36698 h 8 c 1.270043,0.005 2.381726,0.67736 2,4.633 -0.242929,2.96496 -1.787009,3.26673 -2.6,6 -2.273224,2.65727 -4.810481,2.61692 -6.8,0 -1.046983,-2.73668 -2.3812724,-3.15672 -2.6,-6 -0.4320307,-4.0063 0.6061273,-4.62878 2,-4.633 z"
       id="path828"
       inkscape:connector-curvature="0"
       sodipodi:nodetypes="ccccccc" />
    <path
       style="fill:#f0f000;fill-opacity:1;stroke:none;stroke-width:0.26458332px;stroke-linecap:butt;stroke-linejoin:miter;stroke-opacity:1"
       d="m 11,268.59998 c 3.18541,-0.92094 4.848676,-0.97927 8,0 1.577834,0.59722 1.425565,4.61114 0,5.4 -3.389233,1.99104 -4.562038,1.94569 -8,0 -1.3524724,-0.74807 -1.535709,-4.81423 0,-5.4 z"
       id="path842"
       inkscape:connector-curvature="0"
       sodipodi:nodetypes="ccccc" />
    <path
       style="fill:#bcffff;fill-opacity:1;stroke:none;stroke-width:0.26458332px;stroke-linecap:butt;stroke-linejoin:miter;stroke-opacity:1"
       d="m 11.5,269.0003 c 0.286215,-0.28737 6.712247,-0.19551 7,0 0.28715,0.1951 0.294919,4.35829 0,4.6 -0.37795,0.30976 -6.754996,0.29192 -7,0 -0.329321,-0.39238 -0.285495,-4.31335 0,-4.6 z"
       id="path844"
       inkscape:connector-curvature="0"
       sodipodi:nodetypes="sssss" />
    <text
       xml:space="preserve"
       style="font-style:normal;font-variant:normal;font-weight:normal;font-stretch:normal;font-size:2.11666656px;line-height:1.25;font-family:Digital-7;-inkscape-font-specification:Digital-7;letter-spacing:0px;word-spacing:0px;fill:#000000;fill-opacity:1;stroke:none;stroke-width:0.26458332"
       x="11.987753"
       y="271.19998"
       id="text848"><tspan
         sodipodi:role="line"
         id="tspan846"
         x="11.987753"
         y="271.19998"
         style="font-style:normal;font-variant:normal;font-weight:normal;font-stretch:normal;font-size:2.46944451px;font-family:Digital-7;-inkscape-font-specification:Digital-7;stroke-width:0.26458332">-6.9°C</tspan></text>
    <text
       xml:space="preserve"
       style="font-style:normal;font-variant:normal;font-weight:normal;font-stretch:normal;font-size:1.41111112px;line-height:1.25;font-family:Digital-7;-inkscape-font-specification:Digital-7;letter-spacing:0px;word-spacing:0px;fill:#000000;fill-opacity:1;stroke:none;stroke-width:0.26458332"
       x="11.603787"
       y="273.19998"
       id="text830"><tspan
         sodipodi:role="line"
         id="tspan828"
         x="11.603787"
         y="273.19998"
         style="font-size:2.11666656px;stroke-width:0.26458332">EMS 0.94</tspan></text>
  </g>
</svg>
